<?xml version="1.0" encoding="utf-8"?>
<svg xmlns="http://www.w3.org/2000/svg" xmlns:xlink="http://www.w3.org/1999/xlink" version= "1.1" width="720px" height="1424px" viewBox="0 0 720 1424">
<g id="layer1">
<g>
<g style="fill:rgb(0,0,0); fill-opacity:1.0; stroke-linejoin: miter">
<path d="M385.57272,405.86124C375.9737,406.21774,360.84952,407.54175,352.59998,408.7639C305.41974,415.66394,264.83398,433.767,230.51181,463.22614C225.82686,467.2491,214.26726,478.834,210.26979,483.4934C202.35127,492.78702,195.42572,502.53882,189.90062,512.13776C180.35252,528.7642,171.72104,550.1519,167.9782,566.4219C166.11946,574.5949,165.17743,581.4187,164.82094,589.7955C164.59178,594.98975,164.59178,595.47345,165.17744,599.21643C166.04309,604.61414,166.9088,608.38257,167.87633,610.67413C168.30919,611.718,168.86932,613.06744,169.0985,613.6531L169.50589,614.72235L167.74902,617.345C160.74709,627.9116,153.51604,637.33215,136.15121,658.4398C118.65914,679.72565,109.645744,691.51447,102.3128,702.6666C95.89646,712.4693,92.94293,718.80914,91.51709,725.9385C90.880554,728.96826,90.85508,730.878,91.338875,733.4497C92.23004,738.1091,93.88502,740.859,98.06071,744.6782C100.81056,747.19904,103.22939,748.9303,105.87742,750.2543C106.99772,750.81445,109.16195,751.96027,110.664185,752.8004C116.06204,755.80493,118.4809,756.5687,126.50127,757.81635C131.74635,758.6566,134.69992,759.36957,135.97299,760.15894C137.83168,761.3301,139.07928,763.5452,138.69739,765.14935C137.67891,769.656,133.75781,782.05585,132.71393,784.1182C132.30652,784.93304,131.21167,786.58795,130.2696,787.8101C129.32753,789.05774,128.13083,790.61096,127.59616,791.32385C124.489845,795.39777,123.47137,799.7261,124.438896,804.7676C125.279144,809.1215,128.79282,813.7045,134.39435,817.8039C138.23906,820.6047,138.621,820.9866,138.31546,821.5467C138.16269,821.8014,136.58408,823.5836,134.7763,825.4678C132.96854,827.352,130.95709,829.69434,130.29506,830.6874C128.71646,833.08075,127.59616,835.95795,127.46884,838.0458C127.36699,839.57355,127.44339,839.8535,128.36,841.7377C129.65852,844.3602,131.69543,847.05914,135.59106,851.1585C137.3988,853.0682,139.07928,855.13043,139.56305,855.9962C140.02136,856.83636,140.7852,858.0077,141.2435,858.56775C142.262,859.841,143.7642,863.3547,144.19705,865.4425C144.90999,868.7781,143.91696,873.0556,140.12323,883.36743C138.72281,887.21216,137.44977,890.624,137.32242,890.9551C136.68591,892.45715,134.49622,900.12115,133.93607,902.8455C132.28104,910.7641,132.40836,917.9952,134.26706,924.36053C134.54713,925.2772,135.59103,927.46686,136.60954,929.2492C141.2435,937.34595,146.1576,942.7947,152.95583,947.3524C154.2289,948.1926,155.65479,949.2113,156.11307,949.61865C158.15,951.3755,165.35564,954.4818,172.84135,956.7988L177.42444,958.25L192.95598,958.47925C201.5111,958.6065,218.46852,958.86127,230.63914,958.98865C242.83525,959.1414,254.06383,959.37054,255.61696,959.49786C263.17908,960.0835,269.03525,963.1389,273.92386,969.046C274.63678,969.8862,275.65524,971.032,276.2154,971.59216C277.13202,972.53424,279.19443,976.0735,281.33322,980.3765C282.3517,982.46436,284.69415,988.37146,285.76352,991.63055L286.5783,994.1258L290.62668,994.1258C292.86728,994.1258,294.67508,994.0239,294.67508,993.92206C294.67508,993.4383,291.8489,985.3161,290.4994,981.9042C287.9023,975.38605,283.1155,966.8309,281.23132,965.32855C280.7985,964.9976,279.83096,963.9537,279.04166,963.037C276.7246,960.2618,272.44708,956.92633,269.00977,955.19495C264.4267,952.87787,260.22552,951.93585,253.29999,951.60486C250.65196,951.4775,233.56726,951.19745,215.36217,950.9935C197.15714,950.7644,181.2946,950.53516,180.0979,950.4334C175.61667,950.07697,163.3187,945.51917,160.74706,943.2786C160.26329,942.84564,159.24486,942.1328,158.481,941.69995C152.42113,938.1354,146.25946,931.2097,142.5675,923.87683C140.12321,919.0136,139.97044,910.3058,142.18558,901.6234C142.94943,898.5935,144.52805,893.90857,147.58347,885.63354C150.25693,878.42804,151.53003,873.9468,152.09013,869.94934C152.65031,866.13007,151.63187,861.57245,149.1366,856.5818C148.4746,855.28326,147.65982,853.8574,147.3288,853.4501C146.99783,853.0172,146.1831,851.87146,145.54654,850.9038C144.88455,849.9108,142.77124,847.4156,140.86163,845.35333C137.57709,841.8141,135.28555,838.86053,135.28555,838.0967C135.28555,837.51105,136.48222,835.3723,137.60252,833.9464C138.21362,833.1826,140.04684,831.17114,141.67639,829.43976C144.9864,826.00244,146.3104,823.8383,146.61594,821.41943C147.02332,818.2112,146.00485,816.7091,140.73431,812.8134C136.22763,809.50336,133.70691,807.03357,132.66298,804.9459C132.0774,803.8001,131.97552,803.2399,131.97552,801.50854C131.97552,800.36273,132.10284,799.03876,132.25562,798.58044C132.43384,798.1221,133.96153,795.8814,135.69292,793.58984C137.5516,791.12024,139.23209,788.574,139.84315,787.3265C140.86163,785.2131,143.89154,775.8687,145.59744,769.68146C147.4307,762.93427,146.38678,758.8603,141.85461,755.0411C138.6719,752.3677,136.04938,751.42554,128.18173,750.20337C122.14737,749.26135,119.626656,748.6248,117.462425,747.5554C111.45349,744.52545,107.25234,742.15753,105.622795,740.93536C102.97479,738.87305,100.45411,736.14856,99.71572,734.44275C97.449615,729.3757,100.0467,720.71875,107.226875,709.4394C114.58532,697.8798,122.47839,687.46606,142.69485,662.74286C156.39317,645.96375,163.16592,637.40857,167.41803,631.5525C171.0081,626.5621,176.73695,617.9815,177.22072,616.8358C177.85725,615.33356,177.29712,612.8638,175.28564,608.22974C173.91072,605.04706,172.45944,597.20496,172.45944,593.02924C172.45943,578.847,176.17679,561.96606,183.22966,544.2193C193.84714,517.4848,206.55246,497.701,225.16484,479.01245C231.68301,472.46878,235.98601,468.5731,242.40234,463.48056C250.83011,456.7843,259.1815,451.03006,268.06757,445.81036C281.1039,438.17197,297.22113,430.9154,311.3522,426.35785C338.31604,417.59897,364.77063,413.6016,395.88464,413.6016C414.85355,413.6015,428.83203,414.671,449.48135,417.70078C461.16818,419.40686,480.5954,423.25153,483.06522,424.32083C483.67624,424.5754,485.2294,425.05933,486.50247,425.33932C495.1849,427.35065,504.93665,430.3807,513.9246,433.86887C516.9546,435.0401,519.628,436.0077,519.88257,436.0077C520.79926,436.0077,540.5829,445.19946,546.94836,448.58582C562.6072,456.91168,577.09485,467.04544,589.902,478.65582C596.8021,484.89395,608.4126,497.16647,610.27124,500.17096C610.6533,500.80743,611.74805,502.25882,612.7158,503.3792C613.65784,504.525,615.21094,506.51096,616.1531,507.83496C617.0952,509.15894,618.2919,510.7121,618.82654,511.27228C619.3358,511.85797,619.9723,512.7236,620.20154,513.18195C620.4562,513.6657,622.2893,516.51733,624.3008,519.5218C626.28687,522.5263,628.7566,526.4728,629.775,528.30615C632.09204,532.4563,637.6427,543.8376,639.42505,548.03876C640.1633,549.79565,641.131,552.0872,641.58923,553.13104C643.09155,556.492,647.64905,571.1324,648.7185,576.04645C649.07495,577.6506,649.5841,579.4838,649.83887,580.12036C650.8064,582.4627,653.58167,597.73975,654.4474,605.3274C655.8987,618.54193,656.33154,636.0595,655.4658,648.612C653.047,683.9018,645.12854,715.6271,630.6665,748.116C625.7523,759.19183,620.4818,767.77234,608.36206,784.5769C599.57764,796.7475,593.3905,806.092,589.9022,812.4572C589.36755,813.4248,588.65454,814.5706,588.3236,814.9526C588.01807,815.35986,587.3307,816.5057,586.8213,817.4987C586.31213,818.5171,584.93726,821.06335,583.7405,823.20215C579.7175,830.40784,575.21094,842.1455,573.4795,850.0131C572.2064,855.79297,572.0791,857.4989,572.10474,867.83636C572.181,895.1056,574.88,919.9563,583.0531,968.40967C584.53,977.1686,586.10864,986.5385,586.5414,989.2119L587.3562,994.12604L591.37915,994.12604L595.4276,994.12604L595.2494,993.0312C595.14746,992.44556,594.96924,991.55444,594.8419,991.0706C594.5364,989.92487,589.7495,961.5351,587.76355,949.05896C582.1875,914.1509,580.0233,891.8721,579.9978,868.8549C579.97217,859.05206,580.0232,857.16785,580.43054,854.97815C581.7036,847.7725,584.4535,839.6249,588.5272,830.9169C590.004,827.81055,594.3325,819.943,594.9945,819.20465C595.32556,818.84814,595.93665,817.82965,596.3949,816.9131C599.1448,811.38794,603.2186,805.25165,616.22974,786.9959C629.0879,768.9434,633.5691,761.25415,639.7816,746.6647C649.71155,723.34186,656.17896,701.1902,660.04895,677.3073C662.41675,662.64136,663.3589,651.89655,663.5371,637.1799C663.76636,619.4586,662.92615,607.0078,660.5326,593.13116C659.43787,586.71484,657.5791,577.9815,657.17175,577.14136C656.968,576.7595,656.5862,575.5118,656.35706,574.3914C655.1858,569.04456,650.47534,554.0733,648.5403,549.592C644.49194,540.1456,641.3091,533.322,638.3556,527.7969C635.4785,522.4499,634.28186,520.43835,630.819,515.2697C629.16394,512.7745,627.48364,510.15198,627.07605,509.46454C626.6687,508.75165,625.7012,507.37662,624.91187,506.40915C624.14795,505.4161,622.875,503.7865,622.1111,502.7425C621.37256,501.7242,620.0232,499.9927,619.13196,498.9234C618.21545,497.85397,617.2733,496.58078,617.0187,496.09708C615.8728,493.85645,603.9822,481.07462,597.28577,474.86206C582.18713,460.83286,564.77136,448.7131,546.84644,439.75058C539.00415,435.8295,523.42175,428.77658,521.79224,428.4202C521.1557,428.2929,518.58405,427.37622,516.06335,426.3833C508.55225,423.48053,498.62216,420.3233,491.0601,418.46463C488.79404,417.90457,486.60428,417.2679,486.19693,417.0644C485.30582,416.60605,481.0537,415.6385,471.5055,413.70334C445.71298,408.50925,423.10312,406.0648,399.06735,405.86124C392.98203,405.81033,386.89676,405.81033,385.57272,405.86124 Z"/>
</g>
<g style="fill:rgb(0,0,0); fill-opacity:1.0; stroke-linejoin: miter">
<path d="M442.68317,429.6422C440.6971,430.63538,438.63477,432.825,438.22733,434.37823L437.92178,435.49844L422.74667,435.54947L407.59705,435.62592L388.11893,445.86136L368.6408,456.12238L361.9444,456.12238L355.2735,456.12238L355.01886,455.40936C354.56058,454.16187,354.15317,453.49976,353.0329,452.27762C351.55612,450.6227,349.72287,449.75696,347.32947,449.57877C343.5102,449.29868,340.35297,451.10648,338.6725,454.5437C337.9341,456.046,337.83228,456.47876,337.83228,458.28665C337.83228,460.06885,337.9341,460.55276,338.64703,462.00403C339.66553,464.06638,340.9895,465.4158,342.79724,466.28146C343.994,466.8416,344.52866,466.94345,346.61655,466.94345C348.70444,466.94348,349.23907,466.84164,350.4613,466.25604C352.26907,465.41583,353.87314,463.83716,354.6624,462.1059L355.2735,460.78177L357.9979,460.62903C359.47467,460.52722,362.8101,460.45084,365.3563,460.45084L370.04123,460.4507L389.54474,450.13892L409.04828,439.8271L423.35776,439.8269L437.66714,439.82703L438.27826,441.15088C439.04214,442.8314,441.18085,445.021,442.78497,445.7595C444.5163,446.52332,448.31006,446.52332,450.04147,445.73404C451.671,445.021,453.657,443.1114,454.4463,441.53284C455.00647,440.41254,455.0829,439.90338,455.0829,437.66272C455.0829,435.42206,455.00647,434.9128,454.4463,433.79248C453.63156,432.21393,451.64554,430.30432,450.04147,429.5913C449.22675,429.23492,448.13187,429.03128,446.55325,428.9549C444.38904,428.82748,444.18533,428.87842,442.68317,429.6422 Z M449.0485,433.89444C450.24518,434.60733,450.8308,435.80392,450.8308,437.50998C450.8308,439.2923,450.067,440.9219,448.8957,441.53284C447.7245,442.16937,444.8473,442.1186,443.93076,441.43103C442.63217,440.4889,442.09753,439.36856,442.09753,437.73898C442.09753,435.57492,443.0905,433.99625,444.7964,433.46155C445.8658,433.10504,448.1064,433.35974,449.0485,433.89444 Z M348.3225,454.11096C349.34097,454.4928,350.1812,455.33298,350.7159,456.50424C351.53064,458.28668,351.19965,460.1963,349.79926,461.5456C348.09335,463.20065,345.57263,463.37894,343.91757,461.90207C342.49176,460.67993,342.10977,459.58505,342.23712,457.21722C342.3644,454.97656,345.8781,453.1688,348.3225,454.11096 Z"/>
</g>
<g style="fill:rgb(0,0,0); fill-opacity:1.0; stroke-linejoin: miter">
<path d="M490.83093,436.46603C488.66675,437.50998,487.39368,438.75763,486.42615,440.6927L485.63675,442.32214L478.38022,442.42404C471.22552,442.50043,471.1237,442.50043,470.56354,443.08594L469.9779,443.6717L469.9779,487.26178C469.97797,511.2212,470.05432,531.1576,470.15616,531.51404C470.25806,531.896,470.5636,532.3034,470.7927,532.4052C471.0474,532.53265,484.1601,532.65985,499.9717,532.71075L528.6669,532.76166L528.6669,573.62756L528.667,614.49347L522.8617,614.49335L517.05646,614.49347L516.7255,613.52576C515.85986,611.1325,513.51733,608.9173,511.12393,608.2044C509.18887,607.6442,506.0062,607.84796,504.52942,608.6118C502.92535,609.4265,501.2194,611.0816,500.4555,612.58386C499.84448,613.7042,499.76807,614.13696,499.76807,616.4031C499.76807,618.6692,499.84448,619.102,500.48102,620.4005C501.39764,622.2337,502.95074,623.8124,504.73312,624.6526C505.87885,625.18726,506.51538,625.3146,508.2977,625.3146C510.25824,625.3146,510.6401,625.2382,512.16785,624.47437C514.0775,623.5322,515.4779,622.10645,516.59814,619.9676L517.33655,618.5927L524.64404,618.51636C531.26404,618.43994,532.00244,618.38904,532.4099,617.9816C532.84265,617.5489,532.8681,615.5373,532.94446,578.0069C532.99536,556.2628,532.94446,536.40283,532.86804,533.85657L532.6898,529.2226L531.875,528.91705C531.0348,528.58606,509.69806,528.2551,486.09515,528.2041L474.17905,528.1786L474.17902,487.4401L474.17902,446.72705L479.3478,446.6506C482.17398,446.59982,484.72018,446.59982,485.00027,446.6506C485.3312,446.70166,485.78955,447.23624,486.2479,448.12735C487.21542,449.9607,488.79404,451.5647,490.49994,452.48138C491.72214,453.11777,492.12952,453.19424,494.2937,453.19424C496.25427,453.19424,496.9417,453.0924,497.90924,452.63412C499.71704,451.8194,501.49936,450.0116,502.3396,448.15292C502.97614,446.80347,503.07797,446.26877,503.07797,444.41006C503.07797,441.78757,502.54324,440.46347,500.761,438.55386C499.05502,436.7207,497.4255,436.0077,494.6502,435.85495C492.5114,435.72754,492.28226,435.753,490.83093,436.46603 Z M497.06906,440.76907C498.21478,441.6347,498.74948,442.83142,498.74948,444.53735C498.74948,446.49786,498.11295,447.64368,496.58527,448.43292C494.24283,449.6551,491.44208,448.8149,490.449,446.59982C489.32874,444.1554,490.19446,441.4565,492.38412,440.41254C493.4535,439.92874,496.1779,440.13254,497.06906,440.76907 Z M510.1055,612.4565C513.3391,613.3477,513.8229,618.6692,510.7929,620.47687C509.62177,621.1643,507.22836,621.1643,506.0062,620.47687C504.17294,619.4074,503.43454,616.5049,504.50397,614.34064C505.36966,612.53296,507.6357,611.76917,510.1055,612.4565 Z"/>
</g>
<g style="fill:rgb(0,0,0); fill-opacity:1.0; stroke-linejoin: miter">
<path d="M320.11108,451.10648C315.40067,452.45593,312.62534,457.19177,313.77112,462.00403C314.00024,462.94604,314.0257,463.37894,313.82205,463.45517C313.13458,463.6845,292.20514,478.12106,287.1638,481.83856C286.42538,482.37326,284.28662,483.92642,282.35153,485.2504C280.44193,486.59976,277.36108,488.76407,275.52783,490.06244C273.66916,491.38666,271.123,493.16885,269.84995,494.0601C268.60233,494.95117,266.31073,496.55518,264.75763,497.6246C263.22992,498.69403,261.193,500.09448,260.25092,500.75638C259.30884,501.4185,258.41766,501.95306,258.23944,501.95306C258.06122,501.95306,257.45013,501.67303,256.83908,501.31653C255.28593,500.39996,252.84158,499.8398,251.41576,500.04346C248.53857,500.45078,245.83966,502.33502,244.5157,504.805C243.36995,506.96902,243.16624,509.71893,244.00645,511.93402C244.71939,513.8691,246.65448,515.98254,248.53859,516.8992C249.78621,517.51025,250.29546,517.61206,252.15416,517.61206C253.96194,517.61206,254.54756,517.51025,255.76973,516.92444C257.5011,516.10974,259.33435,514.4803,260.25092,512.9272C260.8875,511.8578,260.9384,511.50128,260.9639,508.87866C260.98935,506.027,261.01477,505.9761,261.72775,505.2632C262.13513,504.85577,266.25986,501.8767,270.8684,498.64322C275.50238,495.38394,280.00906,492.17593,280.9257,491.53928C281.84235,490.87735,284.694,488.84048,287.2911,487.00726C289.88815,485.1996,297.47568,479.82712,304.17206,475.09125L316.3682,466.48523L317.28482,467.04538C319.37268,468.293,319.95828,468.4712,322.30072,468.4712C324.33768,468.4712,324.7451,468.39484,326.06903,467.70728C329.17538,466.15417,331.085,463.0988,331.085,459.687C331.085,455.0275,327.5458,451.18274,322.98816,450.87726C321.99518,450.82632,320.79855,450.92828,320.11108,451.10648 Z M325.2033,456.2751C326.4001,457.3444,327.13843,459.07593,326.90927,460.24716C326.45093,462.51328,324.46503,464.27002,322.35168,464.27002C318.5324,464.27002,316.4191,459.58505,318.91434,456.73343C319.95828,455.5622,320.3911,455.38388,322.47897,455.38388C324.1085,455.35843,324.2613,455.40933,325.2033,456.2751 Z M253.47818,504.4994C255.87158,505.16125,257.2974,507.6057,256.7118,509.9735C255.84607,513.3091,251.77223,514.5312,249.25153,512.1887C246.73085,509.82092,247.64748,505.7469,251.00836,504.5503C252.00137,504.1938,252.35785,504.1938,253.47818,504.4994 Z"/>
</g>
<g style="fill:rgb(0,0,0); fill-opacity:1.0; stroke-linejoin: miter">
<path d="M445.96762,457.1154C443.8798,458.13376,442.0211,459.99246,441.43555,461.67294L440.9772,462.97147L420.20053,463.04785L399.44928,463.12427L398.50726,463.7099L397.53967,464.32095L397.53967,473.7164L397.5396,483.11157L378.06152,483.11157L358.58347,483.11157L357.94693,481.83862C356.01187,478.0193,352.37085,476.05878,348.4752,476.74634C343.96848,477.5101,341.29498,480.51443,341.0659,484.99582C340.9386,487.61835,341.54962,489.40076,343.25558,491.28476C344.98697,493.21985,346.89658,494.06015,349.59555,494.0602C352.52362,494.0602,354.1277,493.42355,356.03735,491.4885C357.33588,490.1646,357.69232,489.60434,358.17606,488.12753C358.3034,487.7202,359.55103,487.69476,379.411,487.69476C399.19473,487.69476,400.54416,487.6693,400.9006,487.23642C401.86813,486.14154,401.91907,485.7088,402.0463,476.59348L402.19913,467.58014L421.55,467.52914L440.87537,467.45267L441.61374,468.87848C442.9377,471.52655,444.38904,472.77417,446.93515,473.538C448.76834,474.0727,450.627,474.04724,452.58768,473.43616C454.67554,472.79962,456.2287,471.47565,457.39987,469.31137C458.21466,467.80917,458.26556,467.55463,458.26556,465.2885C458.26556,463.2006,458.16376,462.66586,457.60358,461.4693C456.6615,459.4833,455.312,458.05737,453.63156,457.2172C452.43488,456.65704,451.7729,456.50418,449.88873,456.4278C447.74994,456.35156,447.4444,456.40247,445.96762,457.1154 Z M451.7729,461.2146C454.0135,462.36026,454.82828,465.61957,453.37695,467.6563C452.33304,469.15863,451.21277,469.66776,449.32855,469.56604C448.1064,469.4897,447.57175,469.31137,446.8588,468.77664C445.10193,467.42722,444.6182,464.29544,445.91672,462.4878C447.08795,460.83276,449.83774,460.22168,451.7729,461.2146 Z M351.25052,481.12558C353.33838,481.7368,354.81512,484.3339,354.25497,486.3708C353.44022,489.47705,349.95203,490.8774,347.25305,489.22235C344.91055,487.7712,344.68143,483.6464,346.84564,481.88947C348.11874,480.87103,349.54462,480.61646,351.25052,481.12558 Z"/>
</g>
<g style="fill:rgb(0,0,0); fill-opacity:1.0; stroke-linejoin: miter">
<path d="M515.2486,457.26813C513.339,458.23572,511.81134,459.687,510.8183,461.5201C510.02902,462.99695,509.9526,463.30255,509.9526,465.2885C509.9526,467.19812,510.05447,467.631,510.7674,469.13318C511.65854,470.96643,513.1863,472.5451,514.9685,473.48712C515.9106,473.99637,516.4198,474.07272,518.60944,474.07272C520.82465,474.07272,521.33386,473.97092,522.60706,473.38528C524.4148,472.5451,525.94244,470.99188,526.8336,469.08228L527.5211,467.5801L533.24994,467.55466C536.4071,467.55466,539.1824,467.50372,539.437,467.4527C539.66626,467.4018,540.0227,467.52917,540.22644,467.70728C540.40454,467.8856,548.2467,477.7138,557.6167,489.52795C567.01196,501.34225,578.64795,515.9827,583.4857,522.06793L592.2954,533.1436L592.3209,539.4327L592.3209,545.74713L590.7677,546.5364C587.58496,548.1404,585.7263,550.7885,585.4972,554.04767C585.26794,557.4086,586.5156,559.95465,589.2655,561.8388C593.7976,564.9451,599.7811,563.41736,602.17444,558.52875C602.81104,557.2557,602.88745,556.7974,602.88745,554.6586C602.88745,552.5199,602.81104,552.0616,602.17444,550.81384C601.3342,549.05725,599.6283,547.45294,597.76965,546.58734L596.3948,545.9764L596.3948,538.6689L596.3948,531.3614L585.6754,517.86676C579.7683,510.432,568.97266,496.86093,561.69055,487.69476C554.40845,478.52866,547.0502,469.28598,545.3696,467.14728L542.2887,463.2771L534.90497,463.25165L527.5211,463.25153L527.03735,462.08038C526.37537,460.4508,524.3129,458.3121,522.60706,457.47192C521.4358,456.91162,520.7483,456.75888,518.8896,456.68253C516.80176,456.60614,516.4453,456.65707,515.2486,457.26813 Z M520.2645,461.21463C521.51215,461.54556,522.70886,462.86966,523.09076,464.29547C523.65094,466.40884,522.6834,468.49664,520.6719,469.54062C519.5007,470.1517,517.2346,469.897,516.06335,469.00592C515.01953,468.19107,514.1538,466.58694,514.1538,465.4158C514.1538,464.24457,514.994,462.6659,516.08887,461.7748C517.15826,460.8837,518.4822,460.70538,520.2645,461.21463 Z M596.6494,550.7885C599.32275,552.1126,599.29736,557.1285,596.6239,558.47784C595.45264,559.089,593.1356,559.1654,592.1172,558.63055C589.1636,557.1029,589.06177,552.1634,591.93896,550.7121C593.0083,550.2029,595.55444,550.22833,596.6494,550.7885 Z"/>
</g>
<g style="fill:rgb(0,0,0); fill-opacity:1.0; stroke-linejoin: miter">
<path d="M315.70615,477.8666C312.95627,479.03784,311.0976,481.0493,310.30835,483.8246C308.37323,490.419,315.06964,496.50433,321.8424,494.36563L323.42102,493.85638L326.80743,497.82843C331.05948,502.81888,339.3855,512.31604,341.11685,514.17474L342.41537,515.5752L347.07486,515.6516L351.70892,515.7535L352.19266,516.8484C353.26205,519.2671,355.88458,521.3805,358.45618,521.9406C362.93744,522.8572,366.9349,520.7185,368.61542,516.4664C369.20096,514.9895,369.20096,511.807,368.6408,510.10107C368.05524,508.2932,366.29837,506.46002,364.23596,505.46698C362.70828,504.7286,362.3009,504.65213,360.36584,504.65213C358.60898,504.65213,357.947,504.77954,356.8012,505.31424C354.9934,506.12897,353.26205,507.83496,352.3709,509.66803L351.65793,511.1194L347.76236,511.1194L343.89218,511.1194L335.23517,501.0111L326.57828,490.9028L327.2148,488.99323C327.6986,487.44012,327.80045,486.72723,327.67316,485.45416C327.49484,483.31528,326.47638,481.17645,325.02505,479.7252C323.37003,478.12106,321.76602,477.4336,319.24533,477.3318C317.51392,477.2554,316.97922,477.3318,315.70615,477.8666 Z M320.84933,481.94025C321.2313,482.14413,321.86783,482.6533,322.30066,483.1115C322.98813,483.8246,323.06458,484.07925,323.16638,485.93796L323.24277,487.9494L322.12244,489.06973C320.0601,491.1575,317.79398,491.1575,315.65524,489.09518L314.484,487.97485L314.56036,485.93796C314.66226,483.7482,315.01868,483.1115,316.69913,482.06766C317.61575,481.48203,319.8564,481.43112,320.84933,481.94025 Z M363.06473,509.6427C364.10867,510.3556,364.94894,511.9596,364.94894,513.25824C364.94894,515.16785,363.01385,517.5613,361.18057,517.89233C360.16214,518.0958,358.5326,517.63763,357.5141,516.8993C356.6484,516.2373,355.78275,514.55676,355.78275,513.4619C355.78275,512.49445,356.36832,510.99225,357.0049,510.25378C358.3289,508.77704,361.30792,508.44598,363.06473,509.6427 Z"/>
</g>
<g style="fill:rgb(0,0,0); fill-opacity:1.0; stroke-linejoin: miter">
<path d="M414.67532,481.43112C412.68924,482.44955,411.4926,483.62082,410.67786,485.37775C410.24503,486.34546,410.14313,487.03278,410.14313,489.34976C410.14313,491.8959,410.19406,492.27777,410.8306,493.449C411.67084,495.02768,413.22406,496.45355,415.1082,497.31918C417.14508,498.26132,420.25146,498.28677,422.23743,497.3445C423.96884,496.5298,425.5729,494.95123,426.64227,493.01617L427.45706,491.53934L435.68118,491.46298C440.2133,491.41205,444.08347,491.4375,444.2872,491.5139C444.49088,491.59024,444.9237,492.25235,445.28015,492.96527C446.06943,494.6967,447.72446,496.32626,449.63406,497.26828C450.93265,497.90482,451.41638,498.00662,453.30054,498.00662C455.1338,498.00662,455.69394,497.87936,456.89066,497.29373C458.5711,496.47888,460.63345,494.54382,461.34644,493.14334C462.03387,491.71765,462.05933,486.70175,461.34644,485.4031C459.7932,482.4751,457.14517,480.7691,453.9116,480.61636C449.73587,480.38715,446.5023,482.37326,444.9746,486.03976L444.51627,487.18555L435.96124,487.18555L427.4316,487.18555L426.84598,485.81052C426.20944,484.23187,424.24887,482.2204,422.46655,481.3038C421.60083,480.84546,420.8115,480.69275,418.9274,480.61636C416.55948,480.5144,416.45758,480.5399,414.67532,481.43112 Z M420.32782,485.12308C422.3138,486.03976,423.48505,488.0512,423.1286,489.93533C422.49207,493.52533,418.18906,495.00217,415.54108,492.55783C413.0458,490.26633,413.93695,486.21783,417.1706,484.91943C418.11267,484.53745,419.20755,484.61383,420.32782,485.12308 Z M455.0319,485.02115C456.94156,485.836,457.7054,487.13464,457.7054,489.62973C457.7054,491.08112,457.11978,492.04858,455.5157,493.21985C453.988,494.36563,450.88168,493.67816,449.63406,491.94678C448.81934,490.85202,448.87018,487.6438,449.685,486.47253C450.88168,484.8176,453.07138,484.23187,455.0319,485.02115 Z"/>
</g>
<g style="fill:rgb(0,0,0); fill-opacity:1.0; stroke-linejoin: miter">
<path d="M494.62476,493.14337C490.7546,494.4167,488.66675,497.34454,488.66675,501.5712C488.6668,505.3142,490.06717,507.7329,493.2244,509.41357C494.98126,510.3556,497.83295,510.61023,499.89536,510.02454C502.00867,509.41357,504.17288,507.55487,505.11496,505.5433L505.87878,503.9393L515.93616,504.09204C521.4613,504.16843,527.4957,504.32117,529.329,504.4231L532.6898,504.57584L533.25,505.9253C534.0393,507.8349,536.2545,509.8719,538.3678,510.58484C542.8235,512.087,547.55945,510.12653,549.4182,506.0017C550.0547,504.5759,550.1057,504.24484,550.0038,502.10608C549.7999,498.28687,548.37415,495.9188,545.29333,494.39114C543.96924,493.75458,543.5619,493.6782,541.3976,493.6782C539.437,493.70367,538.7241,493.80548,537.7311,494.2637C535.7452,495.1805,534.42114,496.40265,533.4791,498.2868L532.6134,499.9672L521.28296,499.81445C515.0449,499.71262,509.08685,499.5852,508.04297,499.50897L506.1079,499.3561L505.26764,497.72653C504.32556,495.8934,502.64514,494.23837,500.93918,493.47443C499.48785,492.8379,496.12692,492.6597,494.62476,493.14337 Z M498.49487,497.14102C500.58273,497.72653,502.1868,500.2473,501.77942,502.3351C501.14294,505.82333,496.91632,507.22382,494.31927,504.85587C493.04614,503.73553,492.66415,502.768,492.81696,501.16388C492.96976,499.61066,493.9373,498.31226,495.5668,497.4465C496.81442,496.78452,497.06906,496.75906,498.49487,497.14102 Z M543.4346,498.43942C545.3696,499.43265,546.1334,501.1385,545.6754,503.35376C545.1915,505.61987,543.00183,507.02014,540.40466,506.7147C539.51355,506.61273,539.0807,506.35815,538.11316,505.41605L536.9419,504.24478L536.9418,502.3351C536.9418,500.47644,536.9673,500.42538,537.9603,499.40714C538.5204,498.82138,539.2079,498.23578,539.4879,498.13394C540.48096,497.70105,542.2887,497.8539,543.4346,498.43942 Z"/>
</g>
<g style="fill:rgb(0,0,0); fill-opacity:1.0; stroke-linejoin: miter">
<path d="M287.16382,498.10846C283.77744,498.99957,281.25668,501.74954,280.72202,505.16125C279.9073,510.2282,283.01358,514.60767,287.97858,515.42236C291.89966,516.03357,295.54068,514.0476,297.39938,510.22827L298.08682,508.82776L307.45663,508.82776L316.82648,508.82776L316.82648,530.7248L316.82648,552.6217L303.35733,552.6217L289.91364,552.6217L289.09885,550.99225C287.54578,547.83496,284.8977,546.2565,281.18036,546.2564C278.43048,546.2564,276.6482,546.9437,274.9168,548.6498C273.23627,550.3555,272.49796,552.21423,272.49796,554.88776C272.47244,560.0818,276.01163,563.5702,281.30762,563.5702C283.34457,563.5702,284.69403,563.16266,286.39996,562.06793C287.57117,561.2786,289.17526,559.2671,289.50626,558.12134L289.73544,557.33203L304.47766,557.2049C315.50253,557.1029,319.39813,556.9755,319.80548,556.7465C321.0531,556.0591,321.02765,556.5428,321.10406,534.92596C321.2059,513.1818,321.0786,506.10345,320.51846,505.33963C320.21292,504.90674,319.42358,504.8813,309.0862,504.80505L298.01047,504.72855L297.6031,503.45547C297.04288,501.77493,294.92957,499.61063,292.9945,498.71954C291.41583,498.00662,288.64053,497.70105,287.16382,498.10846 Z M291.365,502.71695C293.22363,503.65927,294.2676,506.05255,293.65646,507.9876C293.04544,509.89722,291.3904,511.1194,289.45535,511.1194C287.90222,511.1194,286.83286,510.63568,285.81433,509.48987C284.8468,508.39502,284.64316,507.65662,284.82135,506.1289C285.1523,503.0989,288.61508,501.3166,291.365,502.71695 Z M283.06448,550.68665C284.2102,551.17035,285.1778,552.49445,285.53424,554.0986C286.06897,556.41547,284.8468,558.4269,282.37704,559.2162C279.90726,560.03094,277.31018,558.2997,276.75,555.4478C276.13892,552.1888,279.88177,549.3627,283.06448,550.68665 Z"/>
</g>
<g style="fill:rgb(0,0,0); fill-opacity:1.0; stroke-linejoin: miter">
<path d="M383.86688,503.71024C379.56387,504.83057,376.76306,510.05,378.0362,514.5823C378.85092,517.38293,380.6333,519.39453,383.33218,520.4894C387.45697,522.1444,392.8548,519.95465,394.61166,515.90625L395.2991,514.3021L423.1541,514.37854L451.00903,514.42944L451.00903,534.3657C451.00903,546.68915,451.11087,554.6331,451.26364,555.19336C451.39093,555.67706,451.74744,556.3392,452.02753,556.64465C452.5367,557.1794,452.63855,557.1794,461.6011,557.1794L470.6654,557.17926L471.37833,558.65607C472.09125,560.1837,473.9754,562.1698,475.40128,562.9082C476.52155,563.4937,479.14417,563.7994,480.87552,563.57025C483.77817,563.1627,486.0188,561.43146,487.36823,558.5288C487.95386,557.2812,488.05573,556.7466,488.05573,554.78595C488.05573,552.8508,487.95386,552.2652,487.39374,551.06854C486.57895,549.3373,485.30588,548.0132,483.5235,547.07117C482.3014,546.43463,481.9704,546.3837,479.3988,546.3837C476.95438,546.38367,476.44516,546.46,475.37582,546.9946C473.6953,547.8349,472.09125,549.51544,471.35287,551.19574L470.74185,552.62164L463.05243,552.62164L455.363,552.62164L455.2866,532.17615C455.2102,513.1818,455.18475,511.70496,454.75186,510.9157L454.29358,510.10095L424.80914,510.10083L395.32455,510.10107L394.50977,508.47144C393.59314,506.61276,391.93817,504.95773,390.15585,504.16846C388.90823,503.60828,385.2927,503.35373,383.86688,503.71024 Z M388.50085,508.1914C388.9337,508.42053,389.6466,508.9298,390.05402,509.36255C390.6651,509.99908,390.7924,510.3556,390.86874,511.8579C390.9961,513.9712,390.58868,514.86237,389.06097,515.98267C388.068,516.72107,387.8898,516.772,386.36212,516.61914C383.73956,516.39,382.31375,515.21875,382.08456,513.07996C381.80447,510.73755,382.6702,508.9298,384.42706,508.16602C385.47095,507.70752,387.48242,507.73297,388.50085,508.1914 Z M481.13016,550.73755C482.98886,551.67957,483.85455,552.9782,483.85455,554.78595C483.85455,556.9248,482.53058,558.7071,480.49362,559.26715C479.246,559.5982,478.15112,559.3944,476.9035,558.5797C475.57947,557.7139,474.94293,556.5936,474.94293,555.06586C474.94293,551.6286,478.2784,549.2862,481.13016,550.73755 Z"/>
</g>
<g style="fill:rgb(0,0,0); fill-opacity:1.0; stroke-linejoin: miter">
<path d="M553.9503,522.1699C550.7168,523.21375,548.22144,526.1926,547.8396,529.4519C547.66125,530.9285,548.1196,533.5001,548.7816,534.8242C549.4691,536.1482,552.11707,538.49054,553.41565,538.92346L554.5105,539.3054L554.5869,556.18634L554.6378,573.06744L557.28577,575.89374C558.73706,577.44684,562.25085,581.2406,565.10254,584.3214L570.27124,589.9231L568.871,590.10126C568.13245,590.1776,566.2228,590.254,564.64417,590.2795L561.818,590.30493L561.51245,589.4393C560.72314,587.0203,558.3552,584.85626,555.68176,584.0923C550.0547,582.4627,544.4276,586.6129,544.4022,592.4183C544.4022,595.8046,546.10815,598.7328,549.08716,600.36224C550.33484,601.07526,550.61487,601.12616,553.1101,601.12616C555.4271,601.12616,555.9618,601.0498,557.05664,600.4896C558.839,599.6239,560.5194,597.84155,561.2578,596.1103L561.8435,594.6589L569.1764,594.5825L576.4839,594.50616L577.1459,593.8951C577.85876,593.20764,577.9607,592.5202,577.4769,591.65436C577.1205,590.9925,573.1738,586.6384,564.7715,577.5997L558.7117,571.10693L558.7117,555.2443L558.7117,539.3818L560.3158,538.669C562.22534,537.7778,563.5748,536.37744,564.64417,534.06036C566.2483,530.6994,565.4845,526.7784,562.7346,524.20667C562.0471,523.57025,560.9523,522.8063,560.2903,522.52625C558.7881,521.83887,555.50354,521.6605,553.9503,522.1699 Z M558.66077,526.5237C560.2903,527.2875,560.9778,528.5351,561.0032,530.7503C561.0032,532.48175,560.3412,533.6275,558.839,534.46783C556.39465,535.8426,553.5939,534.8497,552.4735,532.2017C551.557,529.9865,552.3972,527.7204,554.6123,526.60004C556.26733,525.73444,556.9293,525.7089,558.66077,526.5237 Z M555.3761,588.5226C556.853,589.261,557.4895,590.4831,557.4895,592.49475C557.464,594.40436,556.9802,595.47363,555.65625,596.3394C554.6378,597.02686,552.2445,597.15424,551.09863,596.543C549.4437,595.7029,548.34875,593.4877,548.6798,591.70526C549.2145,588.75183,552.67725,587.1224,555.3761,588.5226 Z"/>
</g>
<g style="fill:rgb(0,0,0); fill-opacity:1.0; stroke-linejoin: miter">
<path d="M296.76285,525.4287C293.9111,525.8362,291.08493,528.0005,290.21924,530.4192L289.73544,531.71783L285.91623,531.7942C283.80292,531.84515,272.24335,531.92145,260.25092,531.9469C239.29605,531.9978,238.40492,531.97235,238.40492,531.5395C238.40492,530.8011,237.0809,528.9171,235.62961,527.6185C233.79637,525.9636,231.93768,525.3015,229.59518,525.4288C226.23433,525.658,223.53535,527.44037,222.05858,530.4192C221.34567,531.84515,221.21832,532.35425,221.21832,534.0093C221.21832,536.9119,221.82944,538.36334,223.86638,540.4257C225.95424,542.5391,227.38004,543.0737,230.61366,542.8956C234.051,542.7172,236.49529,541.1387,237.89569,538.236L238.685,536.6063L243.95554,536.5299C246.85817,536.4791,258.3413,536.4028,269.49347,536.3773L289.7609,536.32635L290.1937,537.44666C291.0085,539.56006,293.45282,541.77527,295.74432,542.4626C296.20267,542.58997,297.5267,542.71716,298.647,542.71716C301.34583,542.7426,302.84814,542.13165,304.60495,540.2475C306.54,538.21045,307.02374,536.9629,307.02374,534.03485C307.02374,531.94696,306.9219,531.41235,306.36182,530.1902C304.65585,526.5745,301.0913,524.81775,296.76285,525.4287 Z M300.5566,530.03735C302.1861,530.903,302.87354,532.20166,302.74625,534.2131C302.6699,535.919,302.23706,536.7339,300.96396,537.70123C300.02194,538.3888,297.34845,538.567,296.2536,538.00684C293.80927,536.7339,293.14728,533.1691,295.00604,531.05585C296.48276,529.37537,298.5451,528.9934,300.5566,530.03735 Z M232.01408,530.21576C233.389,530.9031,234.22922,532.0234,234.43294,533.3984C234.7639,535.58813,233.69452,537.4467,231.55577,538.4143C229.34059,539.4328,226.61623,538.236,225.8269,535.91907C225.31767,534.36584,225.31767,533.6531,225.9033,532.37976C226.46347,531.13226,227.07451,530.5976,228.37306,530.1138C229.7734,529.60455,230.86832,529.63,232.01408,530.21576 Z"/>
</g>
<g style="fill:rgb(0,0,0); fill-opacity:1.0; stroke-linejoin: miter">
<path d="M396.69952,525.4033C393.84778,525.86163,391.14883,527.87317,390.15585,530.3175L389.59567,531.66693L384.8344,531.8197C382.2373,531.9215,372.86743,531.99786,364.03226,531.99786L347.966,531.99786L347.81326,531.2595C347.60956,530.29205,346.26007,528.56055,344.6305,527.2366C342.16083,525.2252,338.82535,524.84326,335.76996,526.2435C330.77942,528.5095,329.1499,534.6203,332.2308,539.33075C333.96222,541.9278,336.5083,543.09906,339.97113,542.8955C343.33206,542.6916,346.23462,540.83295,347.53317,538.0323L348.14426,536.7083L352.52365,536.5809C354.9425,536.50464,364.26147,536.40283,373.24936,536.3774L389.54477,536.32635L390.15585,537.6503C390.89423,539.30536,392.9312,541.3678,394.56076,542.1571C395.55374,542.64087,396.19022,542.7426,398.04895,542.7426C401.00247,542.7426,402.86124,541.9533,404.669,539.96735C406.4258,538.0323,407.0369,536.3009,406.9096,533.5255C406.78226,530.80115,406.09482,529.248,404.38892,527.61847C402.42834,525.7598,399.55115,524.94507,396.69952,525.4033 Z M400.34055,530.0119C402.09735,530.92847,402.5047,531.66693,402.5047,534.03485C402.5047,535.919,402.4538,536.0972,401.7409,536.861C400.84973,537.80316,399.24567,538.59247,398.2017,538.6179C397.13235,538.6179,395.32455,537.6758,394.63705,536.7339C392.9566,534.5187,393.87323,530.903,396.39398,529.8082C397.56516,529.2989,399.0674,529.37537,400.34055,530.0119 Z M341.4224,530.1901C344.37595,531.5395,344.88513,535.1806,342.4409,537.5231C340.68402,539.2035,338.6471,539.3053,336.6611,537.77765C335.33713,536.7846,334.8024,535.43506,335.0316,533.72925C335.48987,530.4956,338.46884,528.8406,341.4224,530.1901 Z"/>
</g>
<g style="fill:rgb(0,0,0); fill-opacity:1.0; stroke-linejoin: miter">
<path d="M426.4387,532.58344C424.73273,533.16907,423.918,533.6783,422.64487,535.0278C420.83713,536.9628,420.35333,538.2615,420.32788,541.0367C420.32788,543.1245,420.40427,543.481,421.16812,545.0341C422.1102,546.9437,423.33237,548.1404,425.52206,549.26074L426.94788,549.97363L426.94788,587.35126L426.9479,624.7289L425.6239,625.23816C423.89252,625.8746,422.36487,627.4023,421.39734,629.4648C420.6589,630.99255,420.58255,631.39984,420.58255,633.46216C420.608,636.3648,421.3209,638.04535,423.3833,639.92944C426.10767,642.3991,429.9524,642.8576,433.46613,641.07526C435.22293,640.2095,437.158,637.9435,437.66724,636.212C438.30377,634.02234,438.07468,631.04346,437.13254,629.3119C436.21597,627.6061,434.28085,625.7983,432.70224,625.16174L431.48007,624.6271L431.30182,588.82806C431.22546,569.12085,431.07266,552.34155,430.99622,551.55225L430.84348,550.1265L432.193,549.439C434.5354,548.2678,435.88486,547.0711,436.80154,545.3906C437.59082,543.91376,437.64172,543.71027,437.64172,541.164C437.64172,538.8469,437.56534,538.3378,437.0052,537.21747C436.16495,535.51154,434.4845,533.88196,432.72763,533.0672C430.99622,532.27795,428.04276,532.0487,426.4387,532.58344 Z M431.22546,537.192C432.77853,537.9559,433.31326,538.9489,433.31326,541.0367C433.31326,543.14996,432.80402,544.16846,431.4291,544.93225C429.5704,545.9509,427.68628,545.8744,426.18405,544.6776C425.34387,544.01575,424.55447,542.36066,424.52908,541.2149C424.52908,539.6108,425.8785,537.3957,427.20248,536.81006C427.96637,536.4791,430.13058,536.6828,431.22546,537.192 Z M431.60742,629.4139C431.93842,629.64294,432.54944,630.2795,432.95688,630.8651C433.9244,632.21466,434.00082,634.3278,433.1096,635.6519C432.14206,637.1032,431.04727,637.6633,429.23947,637.6633C428.01733,637.6633,427.45715,637.5362,426.79517,637.07776C425.4202,636.1612,424.78372,634.9899,424.78372,633.41125C424.78372,631.7818,425.1911,630.89056,426.43872,629.7957C427.27896,629.0575,427.4826,629.0064,429.18857,629.0064C430.46164,629.0064,431.22552,629.13385,431.60742,629.4139 Z"/>
</g>
<g style="fill:rgb(0,0,0); fill-opacity:1.0; stroke-linejoin: miter">
<path d="M505.82788,546.1036C503.28174,546.9438,501.09204,548.80255,500.0481,551.06854C499.25882,552.7999,499.28427,556.59375,500.09906,558.27435C500.96475,560.03107,502.46695,561.6096,504.17288,562.50085C505.4205,563.1627,505.72604,563.4683,505.8534,564.105C505.92972,564.5377,506.00613,567.5169,506.00613,570.674L506.00613,576.45386L504.63116,577.0394C502.9762,577.7268,500.88834,579.8148,500.1245,581.5461C499.38608,583.1757,499.20782,586.0274,499.7171,587.78406C500.81195,591.52704,504.40207,593.9968,508.6287,593.9205C511.78592,593.8441,514.714,591.9598,516.1143,589.0574C516.72546,587.80963,516.80176,587.3258,516.8273,585.2126C516.8273,583.12463,516.72546,582.5901,516.1653,581.3679C515.22327,579.3564,513.84827,577.956,511.96414,577.0394L510.3346,576.2755L510.3855,569.85925L510.46188,563.4429L511.48035,562.9847C514.1538,561.73706,515.80884,559.82745,516.59814,557.10297C518.15125,551.57776,514.38306,546.23083,508.60318,545.8489C507.53384,545.798,506.48987,545.87445,505.82788,546.1036 Z M510.53824,550.81384C513.28815,552.2143,513.3136,557.17944,510.58923,558.5288C509.26517,559.21625,506.82092,559.14,505.7515,558.4015C504.24927,557.383,503.8419,556.59375,503.8419,554.7096C503.8419,552.7999,504.402,551.7051,505.8534,550.81384C506.92276,550.15204,509.26517,550.15204,510.53824,550.81384 Z M510.56378,581.4188C512.11694,582.2845,512.4989,583.0483,512.4989,585.1362C512.4989,586.79126,512.4225,587.04584,511.70953,587.937C511.25125,588.4971,510.41098,589.1083,509.7235,589.3883C508.67957,589.8466,508.39948,589.8721,507.35556,589.592C505.80243,589.15906,504.8349,588.44617,504.22382,587.24945C503.63818,586.07825,503.56183,584.21954,504.071,583.2266C504.58026,582.25903,505.80243,581.1641,506.66812,580.8841C507.71204,580.55304,509.4689,580.78217,510.56378,581.4188 Z"/>
</g>
<g style="fill:rgb(0,0,0); fill-opacity:1.0; stroke-linejoin: miter">
<path d="M212.66321,546.3326C209.02222,547.6821,206.88344,551.2212,207.13803,555.4478C207.34172,558.9361,208.8949,561.17664,212.38315,562.90814L214.01265,563.69745L213.85991,564.7414C213.78351,565.3016,213.65622,568.17865,213.55437,571.10675L213.37614,576.45374L212.02667,577.1666C208.71667,578.8979,207.3163,581.0622,207.13803,584.67773C207.01073,587.5295,207.6473,589.3373,209.42958,591.2213C212.05214,593.9967,215.97327,594.7861,219.3342,593.2075C221.34564,592.23987,222.94968,590.68677,223.86635,588.7772C224.42651,587.5805,224.52835,587.04584,224.52835,585.0852C224.52835,582.9466,224.4774,582.66644,223.66267,581.1896C222.64413,579.3054,220.78548,577.5232,219.18138,576.912L218.03558,576.47925L218.03558,569.93555L218.03558,563.3919L219.28323,562.8572C222.13495,561.6861,224.65565,558.07056,224.68109,555.117C224.7066,553.3092,224.4774,552.2907,223.7645,550.83936C222.84787,549.0572,221.47295,547.6313,219.89436,546.842C218.67218,546.25635,218.06113,546.12897,215.9987,546.07806C214.4201,546.0271,213.24889,546.10345,212.66321,546.3326 Z M218.16293,550.7885C219.63968,552.0616,220.32716,553.1563,220.32716,554.2257C220.32716,556.08453,219.89433,557.1029,218.6976,558.0958C217.70462,558.9107,217.45,558.98706,215.97324,558.98706C213.37614,558.987,211.72113,557.76483,211.31374,555.5497C210.95728,553.71655,212.15398,551.425,213.83444,550.6866C214.98024,550.17737,217.5264,550.2538,218.16293,550.7885 Z M218.44301,581.52057C219.86882,582.6155,220.19984,583.32837,220.19984,585.238C220.19984,587.1476,219.79248,587.93695,218.31567,588.9554C215.82045,590.63586,212.30672,589.3882,211.44104,586.511C210.8045,584.3212,212.02667,581.74976,214.08905,580.98584C215.5149,580.47656,217.3736,580.7059,218.44301,581.52057 Z"/>
</g>
<g style="fill:rgb(0,0,0); fill-opacity:1.0; stroke-linejoin: miter">
<path d="M243.67546,546.2564C242.55513,546.6128,240.54367,547.9877,239.85622,548.8788C237.61559,551.8325,237.18271,555.5244,238.7104,558.707C239.47427,560.2855,241.66397,562.3989,243.0389,562.8571L244.13377,563.23914L244.31194,567.1603C244.54114,572.3289,244.61754,572.94,245.30498,573.653L245.86514,574.264L272.80347,574.264L299.7418,574.26404L300.37833,575.6645C301.14215,577.37036,303.02634,579.3054,304.7323,580.12024C305.82712,580.6804,306.36182,580.75665,308.5515,580.75665C310.81757,580.75665,311.2504,580.6804,312.54898,580.04376C314.2549,579.20355,315.62982,577.7522,316.5464,575.81714C317.10654,574.6204,317.20844,574.0348,317.20844,572.09973C317.20844,570.1647,317.10654,569.57904,316.5464,568.40796C315.7062,566.6255,314.0257,564.9451,312.24344,564.1049C311.04672,563.5446,310.51202,563.4428,308.42416,563.4428C306.28543,563.4428,305.82712,563.5446,304.55405,564.1558C302.89905,564.9706,301.44766,566.4982,300.37833,568.5351L299.63998,569.93555L285.6361,569.93555C262.49152,569.96094,259.8944,569.9355,254.26746,569.7828L248.84413,569.60443L248.84413,566.49817L248.84413,563.3664L249.93898,562.93365C252.07773,562.0933,254.242,559.7763,254.92944,557.6376C255.1077,557.10284,255.26044,555.7025,255.23499,554.5058C255.23499,552.7744,255.13313,552.11255,254.62393,551.01764C253.73277,549.1335,252.35785,547.6822,250.70285,546.842C249.45523,546.2564,248.86961,546.12897,246.80722,546.07806C245.48325,546.0526,244.0574,546.12897,243.67546,546.2564 Z M248.84413,550.71204C249.2515,550.9157,249.86258,551.4759,250.21906,551.9341C250.80466,552.69806,250.88104,553.05444,250.88104,554.7858L250.88104,556.79736L249.70984,557.8923C248.56404,558.9361,248.46222,558.987,246.93454,558.987C244.79576,558.987,243.31898,558.2232,242.5551,556.69543C242.22414,556.0845,241.96951,555.1678,241.96951,554.65857C241.99496,552.92725,243.21712,551.09393,244.77028,550.5083C245.55959,550.2283,248.1312,550.3301,248.84413,550.71204 Z M310.74118,568.2296C313.49106,569.6809,313.7966,573.3475,311.37772,575.4862C310.2574,576.4538,309.51904,576.68286,307.99133,576.4538C305.13965,576.0718,303.53552,573.8566,304.12115,571.18317C304.4522,569.73193,305.1651,568.81525,306.43817,568.1787C307.86398,567.4658,309.34085,567.4913,310.74118,568.2296 Z"/>
</g>
<g style="fill:rgb(0,0,0); fill-opacity:1.0; stroke-linejoin: miter">
<path d="M403.03943,549.94824C400.44235,550.45746,397.6925,552.8508,396.87772,555.2697L396.4703,556.4409L365.99283,556.4409L335.51532,556.44086L334.70053,557.28107L333.8858,558.1213L333.8858,572.4307L333.8858,586.74023L294.54764,586.7402L255.23499,586.74023L254.72577,585.5944C254.06377,584.0921,251.9759,581.9024,250.4482,581.1131C249.37881,580.5785,248.89505,580.502,246.42526,580.502C243.65001,580.502,243.57361,580.52747,242.12228,581.39325C240.41635,582.4116,239.16873,583.81213,238.35397,585.6199C237.51373,587.50415,237.56464,590.6868,238.45586,592.6218C239.37245,594.63324,240.72192,596.03375,242.65697,596.9503C244.08284,597.63776,244.59204,597.73956,246.39981,597.73956C250.16815,597.73956,253.14716,595.93176,254.59845,592.7491L255.23499,591.3487L295.89713,591.2468C318.25235,591.2214,336.81384,591.06866,337.1194,590.96686C338.18875,590.5593,338.26517,589.8465,338.39252,574.9514L338.54526,560.76935L367.52054,560.7694L396.4703,560.7694L396.92862,562.0934C397.79434,564.6904,400.72244,566.85474,404.05786,567.3129C406.9096,567.6949,410.67792,566.04,412.28198,563.72284C414.0643,561.1512,414.3444,557.45935,412.99487,554.63306C412.2056,553.0036,410.2451,551.0177,408.8192,550.432C407.44424,549.84656,404.6944,549.6173,403.03943,549.94824 Z M406.88416,554.4295C408.69186,555.11694,409.99045,557.58673,409.53214,559.54724C408.76825,562.8572,404.61804,564.2067,402.14825,561.96606C401.35892,561.2276,400.5951,559.5727,400.5951,558.5543C400.5951,556.1353,402.47925,554.1748,404.84714,554.14935C405.56012,554.14935,406.4767,554.2767,406.88416,554.4295 Z M248.76773,585.1361C250.1172,585.8489,251.23749,587.9624,251.05931,589.46454C250.85559,591.3996,248.9205,593.3347,246.95998,593.5384C243.47176,593.9457,240.74731,589.87195,242.5551,586.9437C244.00642,584.5759,246.34892,583.88837,248.76773,585.1361 Z"/>
</g>
<g style="fill:rgb(0,0,0); fill-opacity:1.0; stroke-linejoin: miter">
<path d="M355.1207,573.75476C353.3639,574.11127,351.78528,575.00244,350.5631,576.3264C348.9336,578.05786,348.3225,579.53467,348.1952,582.0299C348.0679,584.6015,348.679,586.4093,350.3594,588.26794C351.78528,589.8466,353.4148,590.7123,355.7573,591.11957C357.285,591.37427,357.74326,591.3488,359.14362,590.967C362.07175,590.1521,364.10867,588.39526,365.10168,585.7981L365.53455,584.7032L387.63516,584.7032L409.7613,584.7032L409.76132,606.6003L409.76132,628.49725L378.34177,628.49725L346.94766,628.4972L346.48932,627.3259C345.87817,625.7219,343.61218,623.354,341.9826,622.6156C340.09845,621.77545,336.3556,621.75,334.59872,622.5647C332.99466,623.3031,331.1869,625.0089,330.3721,626.5876C329.76108,627.73334,329.68463,628.1407,329.68463,630.5342C329.68463,633.1311,329.7101,633.25854,330.60132,634.8627C333.55484,640.2095,340.25125,640.9989,344.73245,636.5176C345.4708,635.77924,346.20923,634.73535,346.4638,634.07336L346.92215,632.8765L379.4111,632.7493C397.71796,632.673,412.2565,632.5201,412.6639,632.3927C413.19867,632.2401,413.5042,631.9346,413.65695,631.39984C413.75885,630.99255,413.93704,619.61115,414.0135,606.09106L414.1662,581.4951L413.52966,581.0877C413.19864,580.85846,412.23105,580.62946,411.41626,580.55304C410.57602,580.4767,399.90765,580.4003,387.71155,580.4003L365.50903,580.3749L365.229,579.2036C364.79614,577.52325,362.32635,575.05334,360.2894,574.31494C358.55807,573.6531,356.57208,573.4493,355.1207,573.75476 Z M359.34735,578.5671C361.23148,579.5092,361.9444,582.5137,360.79868,584.72876C359.2455,587.7078,354.56058,587.7078,353.05835,584.7032C351.78528,582.2081,352.72736,579.2545,355.1462,578.18524C356.0883,577.7777,358.09973,577.956,359.34735,578.5671 Z M341.04053,627.1479C342.82285,628.7519,343.2302,630.48315,342.3136,632.4438C341.49884,634.2007,340.735,634.7098,338.6981,634.81165C336.66113,634.939,335.6936,634.608,334.77698,633.5386C333.45294,631.96,333.4021,629.7448,334.6751,627.8861C335.56625,626.56213,336.33014,626.2311,338.2652,626.2056C339.9202,626.2056,340.04752,626.25653,341.04053,627.1479 Z"/>
</g>
<g style="fill:rgb(0,0,0); fill-opacity:1.0; stroke-linejoin: miter">
<path d="M447.9027,573.7802C445.33112,574.1622,442.8868,576.12274,441.6392,578.8216C441.07904,579.99286,440.9772,580.6295,440.95175,582.4117C440.95175,584.3723,441.0281,584.75415,441.792,586.2819C442.86136,588.47156,444.54178,589.9992,446.757,590.814L447.44443,591.0687L447.46997,615.81726C447.49542,644.51263,447.59723,648.5608,448.31015,649.3502L448.79395,649.8849L479.47516,649.936L510.1564,650.0123L510.51282,651.0563C511.55682,654.2135,516.0635,656.8361,519.7554,656.40326C524.72046,655.8175,528.28503,650.9799,527.4193,646.0658C526.8592,643.0359,525.02594,640.66797,522.2252,639.4459C520.54474,638.68195,517.33655,638.68195,515.4015,639.42035C513.7974,640.03143,511.88776,641.78827,510.71655,643.7488L509.9527,644.9964L508.0431,645.1492C506.9991,645.22565,498.9279,645.3529,490.09268,645.4292C481.28296,645.5057,469.08682,645.63293,463.05246,645.70917L452.0276,645.86194L452.0276,618.4654L452.02753,591.09406L453.55524,590.4066C455.363,589.5919,456.66153,588.2679,457.60364,586.2565C458.18927,585.0087,458.26562,584.49963,458.26562,582.2844C458.26562,579.86566,458.21472,579.6618,457.39993,578.13416C456.91617,577.24304,456.17773,576.22455,455.74493,575.86816C453.88623,574.2895,450.5253,573.3984,447.9027,573.7802 Z M452.07846,578.6434C454.21722,579.86566,454.8283,582.4626,453.4788,584.75415C451.82382,587.58044,447.82635,587.70776,446.01862,584.9833C444.61823,582.87006,445.15292,580.04376,447.18982,578.6434C448.36105,577.8541,450.67804,577.8541,452.07846,578.6434 Z M521.2831,643.8761C523.93115,645.63306,523.88025,649.7322,521.1813,651.4128C518.3805,653.11865,514.8668,651.5401,514.30664,648.30646C513.9756,646.3969,515.1214,644.13074,516.8274,643.36694C518.02405,642.80664,520.0355,643.0359,521.2831,643.8761 Z"/>
</g>
<g style="fill:rgb(0,0,0); fill-opacity:1.0; stroke-linejoin: miter">
<path d="M610.6279,575.02795C608.9474,575.2317,606.2484,576.6319,605.1537,577.9051C604.6444,578.4907,603.9315,579.5856,603.60046,580.2985L602.98926,581.6479L600.1376,581.64777C598.55896,581.6479,597.15857,581.7498,597.00574,581.8515C596.3948,582.2335,596.1146,583.27747,595.8855,585.79803C595.7582,587.22394,595.6565,601.30426,595.631,617.09045L595.631,645.78564L594.00146,646.5749C590.97156,648.00085,589.46924,650.4197,589.3165,654.0862C589.1892,657.167,589.8003,658.8728,591.70984,660.7571C594.63806,663.60864,599.01733,664.1435,602.5311,662.02997C605.1537,660.45154,607.03784,656.8616,606.7832,653.88245C606.50305,650.52155,603.60046,646.906,600.41785,645.9639C599.98486,645.83655,599.9595,644.18164,599.9595,616.02106L599.95935,586.20544L601.41064,586.2819C602.98926,586.3583,602.86194,586.2309,604.5426,589.0318C606.50305,592.2909,611.8246,593.56415,615.6184,591.70526C618.801,590.15216,620.838,586.5366,620.48157,583.0738C619.9723,578.1597,615.4402,574.44244,610.6279,575.02795 Z M613.1741,579.6111C614.37085,579.942,615.6948,581.2916,616.02576,582.48816C616.3568,583.685,615.97485,585.6964,615.23645,586.7404C614.5491,587.7079,613.2505,588.268,611.64636,588.268C608.2345,588.26794,606.1721,585.0852,607.5725,581.9789C608.59094,579.73834,610.6279,578.8726,613.1741,579.6111 Z M599.85767,650.3688C603.8806,652.2021,602.964,658.2364,598.53357,658.9492C596.5476,659.2548,594.63806,658.21094,593.82324,656.4032C593.03394,654.6463,593.31396,652.813,594.61255,651.4891C596.19116,649.88495,597.948,649.5031,599.85767,650.3688 Z"/>
</g>
<g style="fill:rgb(0,0,0); fill-opacity:1.0; stroke-linejoin: miter">
<path d="M474.71378,584.7287C472.7787,585.31433,470.20712,587.6823,469.34143,589.6428C468.34845,591.8835,468.47574,594.9898,469.647,597.35767C470.35995,598.7581,472.19315,600.48956,473.89905,601.3553L475.19763,602.01715L475.19763,608.5098L475.19763,615.00256L473.7972,615.6392C472.0913,616.37756,470.1817,618.2616,469.34146,619.9675C468.47574,621.77545,468.4503,625.2636,469.2905,627.0968C470.56363,629.89764,471.91306,631.14514,474.63745,632.0873C478.8641,633.5386,483.39627,631.6546,485.38232,627.60614C485.94247,626.48584,486.01886,626.00214,486.01886,623.5322C486.01886,621.31714,485.91696,620.5532,485.56058,619.89136C484.54205,618.058,481.945,615.74097,480.46823,615.35913L479.78076,615.20636L479.78076,608.53534L479.78076,601.88995L480.9265,601.40625C482.58154,600.74414,484.4657,598.9364,485.30594,597.2305C485.94247,595.9319,486.01886,595.5246,486.01886,593.10565C486.0188,590.6359,485.96786,590.3303,485.28043,589.0828C483.70175,586.25653,481.0028,584.6524,477.61642,584.5251C476.4961,584.49963,475.19757,584.576,474.71378,584.7287 Z M479.7552,589.4901C482.27588,591.0179,482.6579,594.58246,480.49368,596.5939C478.48212,598.47797,474.79025,597.8669,473.49167,595.39716C472.1422,592.87646,473.36432,589.89746,476.1141,588.9043C477.33633,588.4461,478.30386,588.6243,479.7552,589.4901 Z M479.5007,619.7129C481.13022,620.5532,482.25055,622.6921,481.945,624.37256C481.5885,626.4603,479.5007,628.2427,477.46368,628.2426C475.50317,628.21716,473.33893,626.56213,473.00793,624.7798C472.62598,622.7937,473.61896,620.55316,475.22308,619.7639C476.29245,619.2292,478.55856,619.20374,479.5007,619.7129 Z"/>
</g>
<g style="fill:rgb(0,0,0); fill-opacity:1.0; stroke-linejoin: miter">
<path d="M385.3182,600.82056C382.97577,601.48254,380.73517,603.44305,379.844,605.6328L379.3602,606.804L376.02478,606.9568C369.4557,607.23694,350.53772,607.3641,288.4114,607.5425L225.24126,607.6951L224.401,606.1166C223.33165,604.1306,222.0331,602.781,220.42902,601.9917C219.35963,601.45703,218.82492,601.38074,216.50792,601.38074C214.26729,601.3807,213.65623,601.4824,212.68864,601.94073C211.0082,602.78094,209.40413,604.46155,208.53842,606.3201C207.87643,607.695,207.77457,608.22974,207.77457,610.0375C207.77457,612.71094,208.51297,614.4679,210.49898,616.40295C212.28127,618.10876,213.80896,618.6945,216.63525,618.6691C218.36662,618.6691,218.9013,618.5672,220.19986,617.90533C222.1095,616.9631,223.61172,615.51184,224.50291,613.6788L225.19037,612.2528L254.64938,612.09985C270.84293,612.0235,302.94998,611.81995,325.99277,611.69257C349.0355,611.5399,370.42322,611.4381,373.52948,611.4381L379.182,611.438L379.86945,612.99115C380.65872,614.7225,382.33923,616.4031,384.24884,617.3451C385.24188,617.8289,385.8529,617.93085,387.86438,617.93085C390.02856,617.93085,390.436,617.8544,391.6327,617.21783C395.5538,615.15546,397.53976,610.9034,396.39404,606.98224C395.5538,604.0797,393.746,602.04266,391.17435,601.1261C389.62122,600.566,386.74405,600.4131,385.3182,600.82056 Z M390.105,605.27637C391.7855,606.0402,392.75302,608.3827,392.21832,610.36865C391.65814,612.431,390.02856,613.7297,387.99167,613.7297C386.4895,613.7297,385.34372,613.2457,384.478,612.22736C383.05212,610.5214,382.97577,608.4844,384.27435,606.67676C385.6747,604.7417,387.83893,604.207,390.105,605.27637 Z M218.44302,605.8109C220.40355,606.70215,221.32013,608.8918,220.73454,611.2088C220.14893,613.424,218.41754,614.6207,216.10054,614.4425C212.94331,614.18774,211.05914,610.85223,212.43404,608.02606C213.55437,605.6836,216.10054,604.74164,218.44302,605.8109 Z"/>
</g>
<g style="fill:rgb(0,0,0); fill-opacity:1.0; stroke-linejoin: miter">
<path d="M625.47205,608.35736C623.99524,609.07025,621.6782,611.3108,620.93994,612.78754C620.5835,613.44965,620.20154,614.56995,620.0741,615.2574C619.41223,618.7202,621.78015,623.02313,625.192,624.6018L626.6942,625.28925L626.6942,641.4065L626.6942,657.49805L618.72473,669.0577C614.3198,675.3976,610.2969,681.2282,609.7623,682.043L608.7948,683.4944L602.4547,683.4943L596.1404,683.4943L595.5293,682.0939C594.76526,680.3879,593.03394,678.6565,591.0989,677.71436C589.8258,677.1033,589.34204,677.00146,587.35596,677.00146C585.5227,677.00146,584.8098,677.12885,583.8169,677.5872C581.7799,678.52924,580.4813,679.75146,579.5394,681.6611C578.77563,683.2143,578.6992,683.5707,578.6992,685.65875C578.6992,687.5938,578.8264,688.1793,579.3866,689.4015C580.1759,691.1075,581.90735,692.8898,583.53687,693.6791C585.1155,694.4429,588.1963,694.64655,590.05505,694.1118C592.5248,693.3735,594.9437,691.0819,595.682,688.76495L595.96216,687.8227L601.589,687.79724C608.0818,687.7973,610.62805,687.6448,611.0864,687.2628C611.46826,686.9572,615.7711,680.97375,619.74316,675.21936C621.29626,672.9788,624.4536,668.3956,626.79614,665.03467L631.0227,658.9239L631.0227,654.46826C631.0227,652.0238,631.0991,644.4363,631.2009,637.6126L631.35376,625.21295L632.3976,624.831C633.9762,624.2198,635.9877,622.3357,636.8025,620.6553C637.43896,619.35675,637.5154,618.9492,637.5154,616.53046C637.5154,614.1371,637.43896,613.7298,636.8279,612.584C636.0132,611.0053,634.17993,609.2739,632.6013,608.5609C630.8445,607.7716,626.97437,607.6698,625.47205,608.35736 Z M631.45557,612.864C631.8374,613.1695,632.4485,613.7806,632.75415,614.26434C633.56885,615.4356,633.46704,618.03265,632.5759,619.2803C630.1315,622.71765,624.4027,620.8588,624.4027,616.6322C624.4027,615.3338,624.96277,614.2389,626.18506,613.1186C627.2544,612.1511,627.2798,612.1511,629.0112,612.2529C630.2588,612.3293,630.9464,612.48206,631.45557,612.864 Z M589.5204,681.76294C591.1754,682.62866,591.6592,683.4434,591.761,685.5567L591.8628,687.339L590.4624,688.76495L589.0365,690.1653L587.2543,690.06335C585.141,689.9616,584.3262,689.47797,583.48596,687.8228C582.79846,686.5244,582.72217,684.58936,583.25684,683.5452C584.3771,681.3811,587.20325,680.59155,589.5204,681.76294 Z"/>
</g>
<g style="fill:rgb(0,0,0); fill-opacity:1.0; stroke-linejoin: miter">
<path d="M570.34766,609.4011C567.8779,610.03766,565.6881,611.79456,564.56775,614.0861L563.77856,615.69025L556.5984,615.8174C550.9204,615.9448,549.2145,616.04663,548.4507,616.3521L547.50854,616.75964L547.50854,629.5922L547.50854,642.42474L546.4392,642.73035C544.8097,643.2142,541.907,646.244,541.1941,648.1791C540.0482,651.25995,540.6848,654.39166,542.9763,656.91235C548.14514,662.56494,557.10754,659.8661,558.177,652.35486C558.73706,648.3575,556.6238,644.4108,553.1355,642.9596L551.91345,642.47577L551.7606,632.5712C551.6588,627.12244,551.506,622.1575,551.4297,621.52094L551.25146,620.3497L557.4895,620.3497L563.72766,620.3497L564.1604,621.4955C564.7461,622.9723,566.5029,624.9074,568.05615,625.74756C569.58386,626.58777,572.0791,627.097,573.5558,626.8679C575.2108,626.6132,577.62964,625.3656,578.8009,624.1689C583.02747,619.815,581.5763,612.6094,575.97473,610.03766C574.3706,609.2993,571.87537,609.01917,570.34766,609.4011 Z M573.7595,613.7552C575.6437,614.3916,576.86584,616.14844,576.86584,618.21094C576.86584,622.9214,570.32214,624.2962,568.3616,619.99316C567.5215,618.1344,567.90344,616.14844,569.3546,614.8246C570.7296,613.57684,572.1554,613.22034,573.7595,613.7552 Z M552.2699,647.4917C554.6378,649.2995,554.6378,653.0932,552.2953,654.7483C551.07324,655.63947,548.6543,655.74133,547.30493,654.97736C544.2749,653.27136,544.4022,648.25543,547.50854,647.0334C549.1127,646.3969,551.07324,646.575,552.2699,647.4917 Z"/>
</g>
<g style="fill:rgb(0,0,0); fill-opacity:1.0; stroke-linejoin: miter">
<path d="M242.60608,625.6964C240.0854,626.0529,237.41191,628.01355,236.1643,630.40686C235.52774,631.5526,235.47685,631.93463,235.47685,634.4807C235.47685,637.73987,235.83328,638.70746,237.84474,640.66797C239.67798,642.45013,241.3839,643.1376,244.00642,643.1121C245.83966,643.1121,246.3998,643.0103,247.74927,642.3991C249.60799,641.55896,251.41576,639.7513,252.15414,638.04535L252.63792,636.8995L280.67105,636.8995L308.67883,636.8996L308.67883,644.258C308.67883,653.0167,308.577,652.66034,311.37775,652.9658C312.3453,653.0931,325.63626,653.16943,340.91324,653.16943L368.6663,653.19495L369.25192,654.5954C370.0667,656.58136,372.5874,658.8983,374.5479,659.45856C377.6543,660.3497,381.34625,659.45856,383.53592,657.2688C385.87836,654.92633,386.74405,650.9035,385.5728,647.79706C384.83444,645.78564,383.1794,644.02875,381.1935,643.1122C379.7931,642.47565,379.28384,642.3737,377.29785,642.3737C375.20996,642.3737,374.828,642.4502,373.3003,643.21405C371.39075,644.1562,370.09216,645.48004,369.22647,647.3898L368.6663,648.6119L340.735,648.61176L312.80362,648.6119L312.70175,641.1517C312.65082,637.0778,312.52356,633.5131,312.3962,633.28406C312.29437,633.05493,312.01428,632.7748,311.78513,632.6475C311.55603,632.54565,298.21414,632.4183,282.14792,632.3674L252.94345,632.2909L252.00136,630.5341C250.90652,628.4462,249.83713,627.4022,247.69838,626.46027C245.96698,625.6455,244.46474,625.4417,242.60608,625.6964 Z M246.19612,630.50867C248.97145,631.7563,249.40428,635.6264,247.01091,637.8417C244.26105,640.41315,239.62706,638.2235,239.62706,634.35333C239.62706,632.54553,240.67099,630.9414,242.22414,630.30493C243.24258,629.8976,245.07579,629.99945,246.19612,630.50867 Z M379.4621,646.95685C381.65173,648.0772,382.46652,651.6163,381.01523,653.65326C379.00375,656.47955,374.34427,655.8429,373.1221,652.60944C371.64532,648.7393,375.74466,645.0982,379.4621,646.95685 Z"/>
</g>
<g style="fill:rgb(0,0,0); fill-opacity:1.0; stroke-linejoin: miter">
<path d="M570.755,642.5268C566.3502,644.2581,563.9822,649.5796,565.6627,653.98444L566.2992,655.6649L561.0287,660.9354L555.78357,666.18036L496.68723,666.1803L437.59088,666.18024L437.28534,665.1873C436.82706,663.60864,435.24844,661.8264,433.54248,660.9098C428.78113,658.36365,423.28143,660.0949,420.939,664.8564C420.42975,665.8493,420.3279,666.4604,420.3279,668.4718C420.3279,671.37445,420.7862,672.5966,422.61945,674.5571C425.7767,677.9436,430.91998,678.1982,434.89194,675.1682C435.80853,674.4553,437.13254,672.4948,437.38715,671.45087C437.48904,671.0435,437.74362,670.76337,437.99823,670.76337C438.22742,670.76337,465.1658,670.76337,497.85846,670.7634L557.3113,670.7635L563.3966,664.67816L569.45654,658.6184L571.03516,659.1022C575.38904,660.47705,579.94666,658.56744,581.93274,654.51917C582.671,653.0423,582.7728,652.5841,582.7728,650.7762C582.7728,649.0958,582.6456,648.48474,582.08545,647.288C581.2197,645.42926,579.4375,643.64703,577.60425,642.8067C575.5928,641.89014,572.6393,641.7629,570.755,642.5268 Z M576.3821,647.0079C578.9027,648.73944,579.10645,652.35486,576.81494,654.2899C575.28723,655.563,572.53735,655.48663,571.00964,654.1372C568.4126,651.84564,569.0237,648.28094,572.33374,646.4733C573.42847,645.8876,575.0835,646.0914,576.3821,647.0079 Z M431.65833,664.729C432.85504,665.5438,433.44067,666.766,433.44067,668.5482C433.44067,672.57117,428.67932,674.4553,425.7767,671.5527C423.6634,669.4394,424.42722,665.4928,427.2025,664.2197C428.32285,663.7106,430.4871,663.965,431.65833,664.729 Z"/>
</g>
<g style="fill:rgb(0,0,0); fill-opacity:1.0; stroke-linejoin: miter">
<path d="M402.8613,642.5011C401.2317,642.7811,400.21326,643.3669,398.63464,644.94543C396.54678,647.03326,395.80835,649.37573,396.2667,652.35474C396.77594,655.4865,398.4055,657.7272,401.15533,659.00024L402.63205,659.6877L402.63205,664.5508L402.63205,669.41394L394.30618,669.5667C389.69763,669.6685,370.6014,669.8213,351.8108,669.9232L317.6922,670.0758L317.20847,668.8283C316.90292,667.98816,316.19003,667.02045,315.04422,665.87476C313.0582,663.8888,311.75967,663.3796,308.70428,663.3796C307.10022,663.3796,306.5146,663.50684,305.24155,664.11804C302.6699,665.31464,300.88763,667.6571,300.2765,670.61066C299.89456,672.52026,300.0983,674.0479,301.0659,676.00854C301.93152,677.86725,303.3574,679.2167,305.34338,680.1587C306.56555,680.7189,307.10022,680.8207,309.0608,680.8207C311.1741,680.8207,311.47958,680.7443,312.95636,679.955C314.81506,678.9365,316.69922,676.976,317.10657,675.6266L317.38666,674.659L321.63876,674.4809C323.95575,674.4044,341.95712,674.277,361.63895,674.20074C381.32077,674.1244,399.24573,674.02246,401.46088,673.94604C405.1528,673.84424,405.58563,673.79333,406.34952,673.2586L407.21515,672.673L407.21515,666.18024L407.21515,659.6877L408.43735,659.20386C410.1687,658.49097,412.10376,656.5558,412.96945,654.6462C413.5806,653.2968,413.68243,652.76196,413.68243,650.90344C413.68243,648.17896,413.12225,646.8295,411.21265,644.94543C409.55762,643.26495,408.76828,642.85767,406.6805,642.5267C404.8727,642.2211,404.54172,642.2211,402.8613,642.5011 Z M406.8587,646.9823C410.14322,648.5354,410.34695,652.813,407.2406,654.901C406.12033,655.6648,404.03247,655.69025,402.65756,654.97723C399.93317,653.60236,399.6531,649.4012,402.14832,647.5426C403.85428,646.2694,405.05096,646.14215,406.8587,646.9823 Z M311.12314,668.1917C313.64383,669.745,314.20398,672.87665,312.31982,675.1173C311.42868,676.16125,310.4357,676.6195,309.00983,676.6195C306.48914,676.59406,304.5541,674.6081,304.5541,672.03644C304.57956,670.2543,305.4198,668.9047,307.02377,668.0136C307.864,667.5298,310.23196,667.6571,311.12314,668.1917 Z"/>
</g>
<g style="fill:rgb(0,0,0); fill-opacity:1.0; stroke-linejoin: miter">
<path d="M516.29266,680.41345C513.7974,681.05,510.99667,683.4944,510.18195,685.7858L509.7236,687.059L503.2309,687.0589C499.64084,687.059,496.25446,687.18634,495.69427,687.3136C493.65738,687.77185,493.78467,686.57526,493.81012,705.3657C493.83566,723.57074,493.91196,726.0152,494.62494,726.70264C495.08325,727.16095,495.79617,727.21185,513.59375,727.51733L514.91785,727.5428L514.91785,743.20166L514.91785,758.8606L508.98526,758.8606L503.05273,758.8606L502.46713,757.46027C501.7542,755.7288,500.20105,754.15027,498.36783,753.28455C497.14566,752.6989,496.63647,752.62256,494.42126,752.62256C492.1552,752.62256,491.72238,752.6989,490.44925,753.33545C488.69238,754.1757,487.08832,755.8816,486.22263,757.76575C485.637,759.0134,485.58615,759.3953,485.68796,761.4832C485.81525,764.1821,486.50272,765.83704,488.15775,767.49207C490.6275,769.9619,495.23608,770.64935,498.41873,769.01984C499.94644,768.2305,502.00885,766.0662,502.5435,764.6659L503.00183,763.4947L510.182,763.3929C514.1031,763.34186,517.5404,763.1891,517.79504,763.0873C518.8644,762.60364,518.8644,762.50165,518.9408,744.6022C518.9917,735.15594,518.94073,726.70264,518.8643,725.83685C518.76245,724.8695,518.5078,724.0037,518.2278,723.67267L517.7694,723.0871L507.94128,723.0107L498.11313,722.9343L498.11313,707.02075L498.11313,691.1328L503.8165,691.1328L509.54535,691.1328L510.48743,692.91516C512.2189,696.2251,514.8414,697.8291,518.6097,697.8547C520.3157,697.8801,520.8758,697.7783,522.0725,697.21814C525.3061,695.6905,526.91016,693.2462,527.0884,689.60516C527.2921,685.63324,525.7899,682.95966,522.47986,681.3555C520.5193,680.38794,517.8967,680.006,516.29266,680.41345 Z M520.6975,685.2002C523.4729,686.49884,523.702,691.0819,521.0541,692.83875C519.8319,693.67896,517.13293,693.67896,515.91077,692.83875C514.8668,692.1513,513.8993,690.3435,513.8993,689.0705C513.8993,687.8483,514.8668,686.0405,515.9363,685.32764C516.98016,684.6401,519.34814,684.5638,520.6975,685.2002 Z M496.20358,757.0528C498.21503,757.94403,499.1317,759.85364,498.74973,762.1707C498.31693,764.7421,495.1342,766.42267,492.6899,765.3788C490.98398,764.6659,489.96545,763.0109,489.96545,760.99945C489.96545,759.49713,490.50018,758.3004,491.46777,757.6131C493.02084,756.4928,494.59952,756.31445,496.20358,757.0528 Z"/>
</g>
<g style="fill:rgb(0,0,0); fill-opacity:1.0; stroke-linejoin: miter">
<path d="M535.94885,680.6172C534.37036,681.1518,532.30804,683.0361,531.3405,684.7929C530.7548,685.91327,530.57666,686.5498,530.50024,688.2556C530.29663,691.8204,531.5697,694.44275,534.26855,696.19965C538.8771,699.17865,545.26807,697.3964,547.254,692.5843L547.8651,691.13293L554.4852,691.13293L561.1051,691.13293L563.42224,692.5843C572.1046,698.0839,588.1709,708.5484,588.4509,708.9049C588.6802,709.2105,588.7565,710.8909,588.7565,715.29584L588.7565,721.3047L587.10144,722.1705C584.91174,723.2908,583.1295,725.2258,582.54395,727.161C581.90735,729.1724,582.0602,732.559,582.875,734.11224C583.7406,735.7926,585.3192,737.37103,586.92334,738.1603C588.1709,738.7715,588.6293,738.8479,590.8954,738.8479C592.7031,738.8479,593.7471,738.7206,594.40906,738.4404C595.6312,737.8803,597.7954,735.8687,598.5847,734.5194C599.7051,732.6098,599.80676,728.2048,598.78845,726.21875C598.02454,724.74194,595.93665,722.8069,594.35803,722.09406L592.8303,721.4066L592.80493,714.3536C592.80493,710.48346,592.7285,707.09717,592.6267,706.86804C592.34656,706.1805,588.7565,703.7872,570.04224,691.71857L562.4292,686.8045L555.2235,686.8044L548.01794,686.8045L547.33044,685.3277C546.51575,683.62177,544.7333,681.73755,543.15454,680.92267C541.65234,680.1333,537.8076,679.9805,535.94885,680.6172 Z M541.3723,684.86926C542.36536,685.404,543.4602,686.93164,543.6129,688.0265C544.1477,692.0494,540.09924,694.79926,536.7638,692.68604C535.2871,691.7439,534.77783,690.80176,534.77783,688.9685C534.77783,687.28815,535.18524,686.4225,536.43274,685.3022C537.24756,684.5893,537.5022,684.5129,539.0044,684.5129C539.94653,684.5129,540.96497,684.6655,541.3723,684.86926 Z M593.5432,726.4989C595.1727,727.6447,595.78394,730.80206,594.74,732.63525C594.1035,733.73016,592.3467,734.6722,590.9208,734.6722C589.5459,734.6722,587.76355,733.73016,587.05066,732.6607C586.5923,731.9986,586.4651,731.43854,586.4651,730.2673C586.46497,727.26276,588.2218,725.63324,591.2263,725.8368C592.27014,725.91315,593.03406,726.1424,593.5432,726.4989 Z"/>
</g>
<g style="fill:rgb(0,0,0); fill-opacity:1.0; stroke-linejoin: miter">
<path d="M426.0314,683.3416C423.6889,684.2836,422.36493,685.5567,421.14276,687.9755L420.48077,689.2995L416.3305,689.4523C412.02744,689.605,402.60663,689.7579,384.5544,689.98694C367.4697,690.19073,357.8707,690.36896,355.1463,690.52167L352.6001,690.64905L351.709,688.96844C350.66504,686.9825,348.88278,685.2002,347.1768,684.46185C345.52182,683.7235,342.49188,683.54504,340.8623,684.10535C338.23978,684.99646,336.12646,687.1862,335.13348,690.03784C334.5224,691.87115,334.5224,693.195,335.15894,695.1046C336.55933,699.22943,340.07303,701.5464,344.42694,701.2663C347.4569,701.06287,349.87576,699.40784,351.58167,696.37775L352.4728,694.74817L365.15268,694.5956C372.10373,694.5192,380.91345,694.3919,384.68173,694.3154C388.4755,694.2645,398.04904,694.11176,405.96756,694.0354L420.40436,693.85706L421.06635,695.25757C421.85568,696.9126,423.79074,698.8222,425.4967,699.6114C426.46423,700.06964,427.15167,700.1716,429.23953,700.1716C431.6838,700.1716,431.86206,700.1461,433.44073,699.25494C437.2854,697.1417,438.864,693.14417,437.56546,688.91754C436.59793,685.8622,434.91745,684.23267,431.70932,683.2396C429.54507,682.57776,427.81366,682.6032,426.0314,683.3416 Z M430.6654,687.339C434.48462,688.61206,434.73926,693.908,431.07278,695.6904C429.72327,696.3524,428.7812,696.3524,427.43176,695.74133C425.8022,695.00287,424.93652,693.6789,424.83466,691.79486C424.73282,689.7579,425.44577,688.45935,427.07532,687.61914C428.3229,687.00793,429.36682,686.9061,430.6654,687.339 Z M346.33655,689.0194C348.1698,690.4962,348.62814,692.6605,347.55875,694.7227C346.4384,696.8107,343.9177,697.5745,341.6516,696.4797C339.84384,695.6139,339.38556,694.9266,339.2837,692.9406C339.1564,690.59796,339.7165,689.50323,341.6516,688.4593C342.84833,687.82263,345.1399,688.0773,346.33655,689.0194 Z"/>
</g>
<g style="fill:rgb(0,0,0); fill-opacity:1.0; stroke-linejoin: miter">
<path d="M474.02643,693.9589C470.3345,694.3919,467.6101,696.83624,466.64258,700.5535C465.59866,704.6528,467.48282,708.5229,471.58212,710.6872L473.16074,711.5274L473.16074,717.8674L473.16074,724.2327L471.70947,724.97107C469.49432,726.09143,468.19574,727.33905,467.25366,729.2741C466.51532,730.7765,466.41348,731.2093,466.41348,733.01715C466.41348,734.7739,466.54077,735.2832,467.22824,736.7599C469.036,740.6047,472.44788,742.336,477.05643,741.75037C479.70453,741.39404,481.99603,739.5608,483.29456,736.7345C483.85474,735.56323,483.98203,734.9268,483.98203,733.1444C483.98203,731.1839,483.90564,730.80206,483.1417,729.27423C482.1997,727.3646,481.02838,726.2188,478.76227,725.02203L477.23456,724.2073L477.23456,717.8674L477.23456,711.5274L478.86417,710.7381C480.69745,709.8725,482.35245,708.21735,483.31998,706.30786C483.85468,705.213,483.90558,704.8566,483.8037,702.25946C483.70187,699.02594,483.4473,698.33844,481.74136,696.6325C479.60257,694.54474,476.97995,693.628,474.02643,693.9589 Z M477.94748,699.0259C480.5701,700.96094,480.16275,705.26404,477.20917,706.7916C475.70688,707.5809,473.10983,707.0971,471.98953,705.8495C471.09833,704.882,470.8692,704.24536,470.8692,702.7177C470.8692,700.5535,471.60764,699.3568,473.41534,698.4657C473.61902,698.3639,474.53568,698.3129,475.4523,698.3384C476.75082,698.38934,477.28555,698.54205,477.94748,699.0259 Z M477.3619,729.1468C479.85727,730.5728,480.4938,733.52637,478.76233,735.8941C478.17676,736.709,477.7184,737.01447,476.69992,737.32007C473.4154,738.3131,470.86926,736.4544,470.86926,733.14435C470.89474,729.57983,474.35742,727.44086,477.3619,729.1468 Z"/>
</g>
<g style="fill:rgb(0,0,0); fill-opacity:1.0; stroke-linejoin: miter">
<path d="M556.5476,699.00055C554.2306,699.6116,551.68445,701.7759,550.6659,703.9654L550.0548,705.31494L542.6709,705.44214C534.3705,705.595,534.21765,705.6203,533.9376,707.35175C533.8357,707.8864,533.7594,713.5898,533.7594,720.0316L533.7594,731.76953L532.359,732.457C530.34753,733.45,528.8708,734.90137,528.0051,736.7855C527.3685,738.1603,527.26666,738.66956,527.2921,740.65564C527.2921,742.66705,527.3685,743.15076,527.9796,744.42395C528.7944,746.0535,530.50037,747.70844,532.23175,748.5232C533.1738,748.95605,533.86127,749.05786,536.0509,749.05786C538.3679,749.05786,538.8772,748.9816,539.8192,748.4723C541.49976,747.5812,543.10376,745.97705,543.8677,744.3985C544.8607,742.3871,544.98804,739.45905,544.1732,737.3456C543.4602,735.436,541.7544,733.6027,539.7174,732.5333L538.2152,731.744L538.1388,720.7191L538.08777,709.71967L544.0713,709.71967L550.0294,709.7198L550.7169,711.12024C551.5571,712.8261,553.6704,714.88855,555.32544,715.627C556.11475,715.95795,557.2859,716.1871,558.6609,716.28876C560.69775,716.39075,560.8506,716.3653,562.6583,715.47406C565.66284,713.9973,567.26685,711.60394,567.547,708.21747C567.97986,703.0744,564.41516,699.0515,559.272,698.8733C558.2025,698.8224,556.98035,698.8733,556.5476,699.00055 Z M560.74866,703.40533C562.251,704.16925,563.42224,706.02795,563.3967,707.58105C563.3203,711.42584,558.61,713.4118,555.8346,710.7892C554.76526,709.79626,554.3833,708.8796,554.3833,707.4282C554.3833,705.8751,554.8417,704.8822,555.9619,704.0164C557.59143,702.79425,559.14465,702.6161,560.74866,703.40533 Z M538.1897,736.5818C539.5901,737.2438,540.4558,738.695,540.4558,740.35004C540.4558,742.03046,539.8956,743.1254,538.57166,744.0929C535.3635,746.4099,531.18774,744.06744,531.5188,740.12085C531.7988,736.8619,535.0834,735.1049,538.1897,736.5818 Z"/>
</g>
<g style="fill:rgb(0,0,0); fill-opacity:1.0; stroke-linejoin: miter">
<path d="M399.55124,701.06287C397.056,701.4956,394.78995,703.3034,393.54233,705.84955C392.9313,707.1481,392.82944,707.58093,392.82944,709.8469C392.82944,712.11304,392.9058,712.54596,393.51688,713.66626C395.37558,717.20544,399.42395,719.16595,403.29413,718.3767C405.993,717.842,408.25916,716.00867,409.63403,713.30975L410.29602,712.0112L415.66852,712.0621L421.0409,712.1384L433.49164,739.1279C440.31537,753.9719,447.13904,768.76514,448.6159,771.99866L451.3148,777.90576L450.04166,779.5608C448.3612,781.75055,447.85202,783.30365,448.00476,785.82434C448.3612,791.73145,453.73364,795.3216,459.5898,793.5391C462.46695,792.64813,464.402,790.5857,465.1659,787.5812C466.03152,784.22034,465.1659,781.13947,462.69604,778.87335C461.04108,777.34564,459.8953,776.8109,457.14548,776.35266L455.23587,776.0471L447.01178,758.2241C426.61703,714.0735,423.84164,708.29376,422.8741,707.9374C422.49222,707.78455,419.61508,707.68274,416.25415,707.68274L410.29602,707.6828L409.4813,706.00226C407.67352,702.3358,403.62512,700.3244,399.55124,701.06287 Z M402.68307,705.3912C403.8034,705.7222,405.051,706.7153,405.5602,707.70825C406.1458,708.82855,406.044,710.8909,405.33102,712.11304C404.4144,713.66626,402.96313,714.4046,401.18082,714.22644C398.38007,713.9463,396.8778,712.1896,397.0815,709.43964C397.23425,707.32623,398.43097,705.84955,400.36603,705.3912C401.56274,705.1111,401.6391,705.1111,402.68307,705.3912 Z M459.10602,781.4195C463.40897,783.9402,460.45544,790.96765,455.61774,789.669C454.19186,789.2872,453.19888,788.3706,452.53687,786.81726C452.02768,785.62067,452.00223,785.34064,452.2568,784.3475C452.4096,783.73645,452.7915,782.89624,453.0716,782.48895C454.34467,780.73206,457.06906,780.2483,459.10602,781.4195 Z"/>
</g>
<g style="fill:rgb(0,0,0); fill-opacity:1.0; stroke-linejoin: miter">
<path d="M442.42856,706.0278C439.70425,706.76605,437.59094,708.34485,436.52158,710.4325C435.73224,711.9857,435.40125,714.30273,435.73224,716.136C436.49612,720.33716,439.526,723.087,443.80353,723.4435L445.7641,723.59607L460.6082,757.4602C468.75598,776.0727,475.45236,791.4515,475.45236,791.60406C475.45236,791.73145,475.09592,792.1897,474.66302,792.6227C474.23022,793.02997,473.51724,794.0485,473.0844,794.8887C472.01508,796.9765,471.83682,800.03186,472.65155,802.19617C473.3645,804.10583,475.09592,806.01544,476.92914,806.9067C478.20218,807.5431,478.6605,807.61957,480.79935,807.6196C482.8872,807.6196,483.42184,807.5177,484.66946,806.9322C486.4264,806.1173,488.13223,804.4623,488.97247,802.7818C489.48172,801.71246,489.58356,801.1269,489.58356,799.2173C489.58356,797.12946,489.50723,796.7475,488.74338,795.2197C487.24112,792.16437,484.7459,790.4839,481.33405,790.25476L479.34802,790.102L478.25314,787.4029C476.9037,784.0675,468.98505,765.81146,458.16394,741.0885C453.6572,730.802,449.99066,722.29767,449.99066,722.14484C449.99066,721.99207,450.39804,721.381,450.88184,720.7699C452.79144,718.42755,453.58078,715.7031,453.04608,713.13153C452.28226,709.465,449.93976,706.9189,446.55338,706.0278C444.7456,705.56946,444.15997,705.56946,442.42856,706.0278 Z M446.32425,710.45795C447.87735,711.17096,448.56485,712.2913,448.6667,714.30273C448.76852,716.4416,448.08105,717.74,446.4261,718.5547C445.10205,719.2423,443.98172,719.2932,442.68326,718.7585C441.4102,718.22375,440.85,717.6891,440.28986,716.46704C439.6788,715.14294,439.6788,713.9462,440.3153,712.6477C441.43564,710.35626,444.00723,709.4141,446.32425,710.45795 Z M483.1163,795.09247C485.84076,796.5184,486.1463,800.2611,483.70193,802.3745C481.76688,804.08044,479.47528,803.9785,477.69296,802.1198C475.45236,799.7773,475.93616,796.4928,478.76233,795.0669C480.2137,794.3541,481.6905,794.3541,483.1163,795.09247 Z"/>
</g>
<g style="fill:rgb(0,0,0); fill-opacity:1.0; stroke-linejoin: miter">
<path d="M563.1421,729.3252C561.28345,730.24194,559.65393,731.89703,558.7882,733.8321C558.20264,735.0796,558.1516,735.46155,558.25354,737.67676C558.32996,739.8155,558.45715,740.3247,559.09375,741.5214C559.9595,743.1001,562.2765,745.1114,563.8297,745.6208L564.82275,745.9517L564.82275,752.34265L564.82275,758.75903L559.6793,762.37445L554.51074,765.9899L547.89075,765.9899L541.2451,765.98987L540.5831,764.64044C539.7683,762.96,538.8263,761.8397,537.4767,760.92303C533.9377,758.5042,529.17633,759.0134,526.14636,762.14526C524.3132,764.02936,523.753,765.6844,523.8804,768.7907C523.9568,770.8784,524.0586,771.3878,524.6697,772.4062C525.6882,774.1632,528.0051,776.1237,529.63464,776.5819C531.59515,777.16754,534.80334,776.9893,536.33105,776.2254C537.85876,775.48706,539.99756,773.3229,540.68494,771.82056L541.2197,770.6239L548.60364,770.44574L555.9874,770.26746L561.23254,766.47375C564.10974,764.41125,567.03784,762.2217,567.72534,761.58514L568.9984,760.4903L569.17664,757.5622C569.27844,755.9582,569.38025,752.69904,569.38025,750.3312L569.40576,746.0026L570.80615,745.26434C572.4103,744.4241,573.9889,742.7945,574.9564,740.91034C575.542,739.8155,575.6438,739.33167,575.6438,737.3457C575.6438,735.35974,575.542,734.85046,574.9055,733.4756C573.4287,730.2674,571.00977,728.76514,567.114,728.63776C564.848,728.5614,564.5934,728.58685,563.1421,729.3252 Z M567.87805,732.9154C570.88257,733.55194,572.28284,736.5055,570.95886,739.40814C570.14417,741.2158,568.66736,741.9543,566.37585,741.67413C565.1282,741.5214,564.82275,741.3432,563.7533,740.2739C562.58203,739.1281,562.5311,739.00073,562.5311,737.62585C562.5311,736.83655,562.68384,735.7926,562.8876,735.3343C563.32043,734.26483,564.4662,733.19543,565.4592,732.9154C566.5032,732.6099,566.42676,732.6099,567.87805,732.9154 Z M534.52325,764.2585C537.88416,765.9644,537.88416,770.57294,534.5233,772.3044C533.58124,772.78815,533.1483,772.86456,532.1045,772.73724C528.1579,772.2535,526.5538,767.874,529.3291,765.09863C530.7804,763.6474,532.69,763.34186,534.52325,764.2585 Z"/>
</g>
</g>
</g>
</svg>